<svg width="62" height="88" viewBox="0 0 62 88" fill="none" xmlns="http://www.w3.org/2000/svg">
<path d="M0 0V75.7426C0.00936797 76.1524 0.136174 76.5508 0.365264 76.8902C0.594354 77.2296 0.916038 77.4957 1.29187 77.6566L29.6507 87.8052C30.5149 88.0649 31.436 88.0649 32.3001 87.8052L60.6885 77.6632C61.0658 77.5022 61.3896 77.2366 61.6219 76.8976C61.8542 76.5586 61.9854 76.1603 62 75.7492V0H0Z" fill="#FF0837"/>
<path d="M29.087 47.5398C29.1952 46.6124 28.9919 45.5897 29.2542 44.853C29.3329 44.6261 29.5821 44.4485 29.6804 44.2282C29.8313 43.85 29.7427 43.4192 29.8903 43.041C30.0378 42.6628 31.4379 40.4726 32.7823 40.4726C33.2413 40.4726 34.0938 41.8933 34.2938 42.2945C35.0906 43.9848 35.1988 45.4778 35.3266 47.4872C35.4545 49.4965 35.2611 51.2986 35.0939 53.229C34.766 57.2148 33.8479 64.5615 31.8609 64.5615C29.8739 64.5615 28.8837 59.3853 28.7854 57.2674C28.6871 55.1495 29.1544 51.8844 29.087 47.5398Z" fill="white"/>
<path d="M15.8963 32.6725C16.7108 31.2651 18.9825 29.9272 20.3268 29.9272C22.5235 29.9272 23.3903 31.4547 24.0087 33.0553C24.5488 34.4109 24.4604 36.5624 24.2355 38.7806C24.0107 40.9988 23.8835 43.5286 22.5724 45.5625C21.2614 47.5965 18.3651 49.3445 16.5518 49.3445C14.2242 49.3445 13.0829 47.7308 12.6529 45.2935C12.0379 41.6832 11.3319 36.2932 15.8963 32.6725Z" fill="white"/>
<path d="M46.6089 32.6725C45.7944 31.2651 43.5227 29.9272 42.1784 29.9272C39.9817 29.9272 39.1149 31.4547 38.4965 33.0553C37.9564 34.4109 38.0448 36.5624 38.2697 38.7806C38.4945 40.9988 38.6217 43.5286 39.9328 45.5625C41.2438 47.5965 44.1401 49.3445 45.9534 49.3445C48.281 49.3445 49.4223 47.7308 49.8523 45.2935C50.4673 41.6832 51.1733 36.2932 46.6089 32.6725Z" fill="white"/>
</svg>